<?xml version="1.0" standalone="no"?>
<!DOCTYPE svg PUBLIC "-//W3C//DTD SVG 20010904//EN"
 "http://www.w3.org/TR/2001/REC-SVG-20010904/DTD/svg10.dtd">
<svg version="1.0" xmlns="http://www.w3.org/2000/svg"
 width="1024.000000pt" height="1024.000000pt" viewBox="0 0 1024.000000 1024.000000"
 preserveAspectRatio="xMidYMid meet">
<metadata>
Created by potrace 1.11, written by Peter Selinger 2001-2013
</metadata>
<g transform="translate(0.000000,1024.000000) scale(0.100000,-0.100000)"
fill="#000000" stroke="none">
<path d="M9857 9905 c-26 -7 -102 -16 -169 -19 -306 -16 -647 -67 -1008 -151
-746 -174 -1543 -522 -2210 -966 -145 -97 -251 -169 -260 -179 -3 -3 -50 -38
-105 -79 -86 -64 -277 -215 -311 -246 -6 -5 -37 -32 -69 -60 -248 -212 -555
-516 -834 -825 -58 -63 -123 -135 -145 -160 -23 -25 -70 -79 -105 -120 -35
-41 -73 -86 -84 -100 -45 -52 -204 -247 -237 -290 -19 -25 -37 -47 -40 -50 -3
-3 -18 -23 -35 -45 -16 -22 -32 -42 -35 -45 -3 -3 -17 -21 -30 -40 -13 -19
-27 -37 -30 -40 -4 -3 -53 -70 -110 -150 -57 -80 -107 -149 -111 -154 -4 -4
-42 12 -86 36 -414 232 -871 289 -1389 173 -159 -36 -434 -127 -559 -185 -400
-185 -708 -368 -1039 -619 -218 -164 -535 -436 -523 -447 2 -3 20 2 40 11 36
15 204 60 261 71 17 3 67 12 111 20 201 36 493 38 710 4 345 -53 670 -199 944
-423 163 -133 342 -333 468 -522 73 -110 93 -146 72 -128 -13 10 -41 -14 -167
-140 -170 -171 -192 -206 -188 -297 3 -66 19 -99 81 -164 l47 -49 -105 -106
c-113 -114 -136 -155 -118 -217 8 -29 8 -29 -33 -27 -87 3 -179 -24 -511 -152
-240 -92 -282 -112 -377 -174 -170 -111 -295 -264 -367 -448 l-20 -52 57 -21
c70 -27 219 -65 289 -75 l52 -7 -26 -41 c-80 -126 -152 -315 -178 -467 -26
-149 -29 -365 -6 -380 8 -4 75 -7 150 -5 255 6 489 74 694 202 20 13 37 20 38
16 1 -5 2 -19 4 -33 11 -89 58 -259 87 -317 14 -29 33 -25 153 32 204 96 359
269 456 510 38 95 148 390 176 470 38 112 46 149 47 218 l1 48 33 -6 c72 -13
101 1 214 112 l106 105 48 -47 c81 -82 166 -104 249 -66 36 17 78 57 293 283
l62 66 93 -60 c164 -108 287 -208 417 -338 66 -67 85 -88 156 -175 188 -232
344 -567 389 -835 3 -19 8 -42 10 -50 2 -8 7 -37 10 -65 4 -27 10 -75 14 -105
8 -63 7 -368 -2 -420 -3 -19 -9 -62 -13 -95 -3 -33 -8 -69 -10 -80 -3 -11 -11
-51 -18 -90 -14 -67 -37 -155 -69 -258 -12 -37 -12 -47 -3 -45 7 2 55 51 107
109 131 147 139 156 272 324 61 77 197 268 271 379 375 571 593 1120 642 1616
7 78 7 317 -1 380 -22 190 -54 322 -114 477 -35 88 -126 269 -142 278 -21 14
-5 34 69 85 42 29 89 63 103 74 15 12 39 30 55 41 199 142 704 555 899 735 28
26 82 76 120 111 243 222 483 463 690 693 6 6 50 58 99 116 48 58 99 118 113
135 14 16 81 104 149 195 68 91 127 170 132 175 20 26 195 290 249 375 139
222 367 650 460 865 333 769 520 1505 558 2202 3 60 9 119 12 133 3 14 7 30 8
36 2 6 6 21 10 33 7 24 7 24 -58 6z"/>
</g>
</svg>
