<svg version="1.2" xmlns="http://www.w3.org/2000/svg" viewBox="0 0 137 80" width="137" height="80">
	<title>based-svg-svg-svg</title>
	<style>
		.s0 { fill: #f2f7f5 } 
	</style>
	<g id="Folder 1">
		<path id="Layer" fill-rule="evenodd" class="s0" d="m19.2 22.6h16.9q7.5 0.1 10.8 4.3 3.4 4.3 2.2 11.6-0.4 3.4-1.9 6.6-1.5 3.2-4.1 5.8-3.2 3.3-6.8 4.2-3.6 0.9-7.4 0.9h-7.6l-2.4 12h-8.8zm3.6 26.1q0.4 0 0.7 0 0.5 0 0.9 0 6.1 0.1 10.1-1.2 4.1-1.3 5.5-9.2 1.1-6.6-2.3-7.6-3.4-1-8.4-1-0.8 0.1-1.5 0.1-0.6 0-1.2 0zm3.7-18.9q0.1 0 0.1 0z"/>
		<path id="Layer" class="s0" d="m59.1 10.6h8.7l-2.4 12h7.8q6.5 0.2 9.6 2.7 3.3 2.5 1.9 9.6l-4.2 21.1h-8.9l4.1-20.1q0.6-3.2-0.4-4.5-1-1.4-4.4-1.4h-7l-5.2 26h-8.7z"/>
		<path id="Layer" fill-rule="evenodd" class="s0" d="m94.1 22.6h16.9q7.5 0.1 10.8 4.3 3.4 4.3 2.3 11.6-0.5 3.4-2 6.6-1.5 3.2-4 5.8-3.2 3.3-6.8 4.2-3.6 0.9-7.5 0.9h-7.6l-2.4 12h-8.7zm3.5 26.1q0.4 0 0.8 0 0.4 0 0.9 0 6 0.1 10.1-1.2 4-1.3 5.4-9.2 1.2-6.6-2.3-7.6-3.3-1-8.4-1-0.7 0.1-1.4 0.1-0.6 0-1.3 0zm3.8-18.9h0.1z"/>
	</g>
</svg>