<svg version="1.2" xmlns="http://www.w3.org/2000/svg" viewBox="0 0 1920 564" width="1920" height="564">
	<title>divider-14@1x-svg</title>
	<style>
		.s0 { fill: #bdf4b2 } 
		.s1 { fill: #266149 } 
		.s2 { fill: #25626e } 
	</style>
	<path id="Layer" class="s0" d="m1920 20.8c0 0 0 435.6 0 592.6v6c-70.2 19.4-192.3 45.5-340.5 34.4-185.6-14-312-78.9-435.9-141.5 86.3-10.1 170.1-27 244.3-53.9 67.7-24.5 127.5-57.2 174.1-100.3 54.7-50.5 86.4-108.5 104.1-164.6 140-80.2 253.9-172.7 253.9-172.7z"/>
	<path id="Layer" class="s1" d="m1562 358.1c54.7-50.5 86.4-108.5 104.1-164.6-109.8 63-235.4 118.3-333.4 115.3-73.5-2.3-201.6-40.4-350.8-84.7-361.9-107.7-848.2-252.2-981.8-12.6 0.2 46.7 0.1 188.2 0 330-0.1 142-0.2 284.2 0 331.9h1919.9v-254c-267.8 74.1-528.2 18.4-772-104.9l-4.4-2.2c86.3-10.1 170.1-27 244.3-53.9 67.7-24.5 127.5-57.2 174.1-100.3z"/>
	<path id="Layer" class="s2" d="m1920 619.4v254h-1919.6c30.3-81 122.1-289.6 341-407.7 151.1-81.5 294-82.6 359.3-82.3 187.7 0.9 314 63.7 442.9 128.9 248.6 125.7 502.4 182.9 776.4 107.1z"/>
</svg>